<?xml version="1.0" encoding="UTF-8"?><svg id="Layer_2" xmlns="http://www.w3.org/2000/svg" viewBox="0 0 110.81 95.97"><g id="Layer_1-2"><path d="m92.34,31.99L73.87,0h-36.94l-18.46,31.99L0,63.98l18.47,31.99h73.87l18.47-31.99-18.47-31.99ZM38.67,3h33.47l16.74,28.99H21.93L38.67,3Zm0,57.97l-15.01-25.98h30.01l-15,25.98Zm16.74-22.98l13.27,22.99h-26.55l13.28-22.99Zm15,25.99l-15,25.99-15.01-25.99h30.01Zm-13.27-28.98h0s30.01,0,30.01,0l-15.01,25.99-15-25.98Zm-36.94,57.97L3.46,63.98l16.74-28.99,16.73,28.99,16.74,28.99H20.2Zm70.41,0h-33.47s16.73-28.99,16.73-28.99l16.74-28.99,16.74,28.99-16.74,28.99Z"/></g></svg>